<svg width="193" height="37" viewBox="0 0 193 37" fill="none" xmlns="http://www.w3.org/2000/svg">
<path d="M67.668 14.3406H64.3342V19.3511H67.668V14.3406Z" fill="black"/>
<path d="M51 23.5261V24.3615V27.701H54.3338V24.3615V22.6917H51V23.5261Z" fill="black"/>
<path d="M54.3338 18.7471V17.6802V14.3406H64.3342V11H54.3338H53.8543H51V17.6802V18.7471V19.3511H54.3338V22.6906H64.3342V19.3511H54.3338V18.7471Z" fill="black"/>
<path d="M99.3594 11H96.0289H96.0256L89.3591 27.701H92.6929L94.0258 24.3604H101.363L102.695 27.701H106.029L99.3627 11H99.3594ZM95.3597 21.0208L97.6942 15.1717L100.029 21.0208H95.3597Z" fill="black"/>
<path d="M82.6675 19.3511H74.3345V11H71.0007V27.701H74.3345V22.6906H82.6675V27.701H86.0013V11H82.6675V19.3511Z" fill="black"/>
<path d="M137.666 27.701H141L134.332 11H134.329H130.999H130.995L124.329 27.701H127.663L128.995 24.3604H136.332L137.666 27.701ZM130.329 21.0208L132.664 15.1717L134.998 21.0208H130.329Z" fill="black"/>
<path d="M112.662 11H109.329V24.3615V27.701H112.662H122.662V24.3615H112.662V11Z" fill="black"/>
<path d="M18.5 37C28.7173 37 37 28.7173 37 18.5C37 8.28273 28.7173 0 18.5 0C8.28273 0 0 8.28273 0 18.5C0 28.7173 8.28273 37 18.5 37Z" fill="black"/>
<path d="M26.011 19.2289H13.32V23.4595H26.011V19.2289Z" fill="#D1FF52"/>
<path d="M30.2423 12.8834H26.0117V19.2296H30.2423V12.8834Z" fill="#D1FF52"/>
<path d="M13.32 23.4602H9.08868V24.5184V25.5759V29.8057H13.3193V25.5759H13.32V23.4602Z" fill="#D1FF52"/>
<path d="M26.0117 8.65282H13.32H12.7117H9.08868V17.114V18.4645V19.2296H13.32V18.4645V17.114V12.8834H26.0117V8.65282Z" fill="#D1FF52"/>
<path d="M26.011 19.2289H13.32V23.4595H26.011V19.2289Z" fill="#D1FF52"/>
<path d="M150.187 11.435H151.122C151.335 11.435 151.47 11.534 151.529 11.732L155.456 24.525C155.5 24.6717 155.537 24.8293 155.566 24.998C155.603 25.1667 155.639 25.3427 155.676 25.526C155.713 25.3427 155.749 25.1667 155.786 24.998C155.823 24.8293 155.867 24.6717 155.918 24.525L160.318 11.732C160.347 11.6513 160.399 11.5817 160.472 11.523C160.545 11.4643 160.633 11.435 160.736 11.435H161.044C161.147 11.435 161.231 11.4643 161.297 11.523C161.363 11.5743 161.414 11.644 161.451 11.732L165.851 24.525C165.902 24.6717 165.946 24.8257 165.983 24.987C166.027 25.1483 166.067 25.3207 166.104 25.504C166.141 25.328 166.174 25.1593 166.203 24.998C166.232 24.8293 166.269 24.6717 166.313 24.525L170.24 11.732C170.262 11.6513 170.31 11.5817 170.383 11.523C170.464 11.4643 170.555 11.435 170.658 11.435H171.516L166.621 27H165.609L161.011 13.492C160.952 13.316 160.901 13.129 160.857 12.931C160.813 13.129 160.762 13.316 160.703 13.492L156.094 27H155.093L150.187 11.435ZM174.856 16.055V27H173.811V16.055H174.856ZM175.318 12.282C175.318 12.414 175.288 12.5387 175.23 12.656C175.178 12.766 175.109 12.865 175.021 12.953C174.933 13.041 174.83 13.1107 174.713 13.162C174.595 13.2133 174.471 13.239 174.339 13.239C174.207 13.239 174.082 13.2133 173.965 13.162C173.847 13.1107 173.745 13.041 173.657 12.953C173.569 12.865 173.499 12.766 173.448 12.656C173.396 12.5387 173.371 12.414 173.371 12.282C173.371 12.15 173.396 12.0253 173.448 11.908C173.499 11.7833 173.569 11.677 173.657 11.589C173.745 11.501 173.847 11.4313 173.965 11.38C174.082 11.3287 174.207 11.303 174.339 11.303C174.471 11.303 174.595 11.3287 174.713 11.38C174.83 11.4313 174.933 11.501 175.021 11.589C175.109 11.677 175.178 11.7833 175.23 11.908C175.288 12.0253 175.318 12.15 175.318 12.282ZM179.889 10.995V20.752H180.395C180.498 20.752 180.593 20.7373 180.681 20.708C180.777 20.6787 180.879 20.609 180.989 20.499L185.378 16.33C185.459 16.2493 185.54 16.1833 185.62 16.132C185.708 16.0807 185.818 16.055 185.95 16.055H186.874L182.045 20.642C181.972 20.7153 181.902 20.785 181.836 20.851C181.77 20.9097 181.697 20.961 181.616 21.005C181.734 21.0637 181.833 21.1333 181.913 21.214C181.994 21.2947 182.078 21.3827 182.166 21.478L187.237 27H186.324C186.222 27 186.13 26.9817 186.049 26.945C185.969 26.901 185.888 26.835 185.807 26.747L181.209 21.819C181.085 21.687 180.971 21.599 180.868 21.555C180.766 21.5037 180.604 21.478 180.384 21.478H179.889V27H178.833V10.995H179.889ZM190.905 16.055V27H189.86V16.055H190.905ZM191.367 12.282C191.367 12.414 191.337 12.5387 191.279 12.656C191.227 12.766 191.158 12.865 191.07 12.953C190.982 13.041 190.879 13.1107 190.762 13.162C190.644 13.2133 190.52 13.239 190.388 13.239C190.256 13.239 190.131 13.2133 190.014 13.162C189.896 13.1107 189.794 13.041 189.706 12.953C189.618 12.865 189.548 12.766 189.497 12.656C189.445 12.5387 189.42 12.414 189.42 12.282C189.42 12.15 189.445 12.0253 189.497 11.908C189.548 11.7833 189.618 11.677 189.706 11.589C189.794 11.501 189.896 11.4313 190.014 11.38C190.131 11.3287 190.256 11.303 190.388 11.303C190.52 11.303 190.644 11.3287 190.762 11.38C190.879 11.4313 190.982 11.501 191.07 11.589C191.158 11.677 191.227 11.7833 191.279 11.908C191.337 12.0253 191.367 12.15 191.367 12.282Z" fill="black"/>
</svg>
