<svg width="142" height="26" viewBox="0 0 142 26" fill="none" xmlns="http://www.w3.org/2000/svg">
<path d="M16.668 9.34064H13.3342V14.3511H16.668V9.34064Z" fill="black"/>
<path d="M0 18.5261V19.3615V22.701H3.33382V19.3615V17.6917H0V18.5261Z" fill="black"/>
<path d="M3.33382 13.7471V12.6802V9.34064H13.3342V6H3.33382H2.85429H0V12.6802V13.7471V14.3511H3.33382V17.6906H13.3342V14.3511H3.33382V13.7471Z" fill="black"/>
<path d="M48.3594 6H45.0289H45.0256L38.3591 22.701H41.6929L43.0258 19.3604H50.3626L51.6954 22.701H55.0293L48.3627 6H48.3594ZM44.3597 16.0208L46.6942 10.1717L49.0286 16.0208H44.3597Z" fill="black"/>
<path d="M31.6675 14.3511H23.3345V6H20.0007V22.701H23.3345V17.6906H31.6675V22.701H35.0013V6H31.6675V14.3511Z" fill="black"/>
<path d="M86.6662 22.701H90L83.3324 6H83.3291H79.9985H79.9953L73.3287 22.701H76.6625L77.9954 19.3604H85.3322L86.6662 22.701ZM79.3294 16.0208L81.6638 10.1717L83.9983 16.0208H79.3294Z" fill="black"/>
<path d="M61.662 6H58.3293V19.3615V22.701H61.662H71.6624V19.3615H61.662V6Z" fill="black"/>
<path d="M99.187 6.435H100.122C100.335 6.435 100.47 6.534 100.529 6.732L104.456 19.525C104.5 19.6717 104.537 19.8293 104.566 19.998C104.603 20.1667 104.639 20.3427 104.676 20.526C104.713 20.3427 104.749 20.1667 104.786 19.998C104.823 19.8293 104.867 19.6717 104.918 19.525L109.318 6.732C109.347 6.65133 109.399 6.58167 109.472 6.523C109.545 6.46433 109.633 6.435 109.736 6.435H110.044C110.147 6.435 110.231 6.46433 110.297 6.523C110.363 6.57433 110.414 6.644 110.451 6.732L114.851 19.525C114.902 19.6717 114.946 19.8257 114.983 19.987C115.027 20.1483 115.067 20.3207 115.104 20.504C115.141 20.328 115.174 20.1593 115.203 19.998C115.232 19.8293 115.269 19.6717 115.313 19.525L119.24 6.732C119.262 6.65133 119.31 6.58167 119.383 6.523C119.464 6.46433 119.555 6.435 119.658 6.435H120.516L115.621 22H114.609L110.011 8.492C109.952 8.316 109.901 8.129 109.857 7.931C109.813 8.129 109.762 8.316 109.703 8.492L105.094 22H104.093L99.187 6.435ZM123.856 11.055V22H122.811V11.055H123.856ZM124.318 7.282C124.318 7.414 124.288 7.53867 124.23 7.656C124.178 7.766 124.109 7.865 124.021 7.953C123.933 8.041 123.83 8.11067 123.713 8.162C123.595 8.21333 123.471 8.239 123.339 8.239C123.207 8.239 123.082 8.21333 122.965 8.162C122.847 8.11067 122.745 8.041 122.657 7.953C122.569 7.865 122.499 7.766 122.448 7.656C122.396 7.53867 122.371 7.414 122.371 7.282C122.371 7.15 122.396 7.02533 122.448 6.908C122.499 6.78333 122.569 6.677 122.657 6.589C122.745 6.501 122.847 6.43133 122.965 6.38C123.082 6.32867 123.207 6.303 123.339 6.303C123.471 6.303 123.595 6.32867 123.713 6.38C123.83 6.43133 123.933 6.501 124.021 6.589C124.109 6.677 124.178 6.78333 124.23 6.908C124.288 7.02533 124.318 7.15 124.318 7.282ZM128.889 5.995V15.752H129.395C129.498 15.752 129.593 15.7373 129.681 15.708C129.777 15.6787 129.879 15.609 129.989 15.499L134.378 11.33C134.459 11.2493 134.54 11.1833 134.62 11.132C134.708 11.0807 134.818 11.055 134.95 11.055H135.874L131.045 15.642C130.972 15.7153 130.902 15.785 130.836 15.851C130.77 15.9097 130.697 15.961 130.616 16.005C130.734 16.0637 130.833 16.1333 130.913 16.214C130.994 16.2947 131.078 16.3827 131.166 16.478L136.237 22H135.324C135.222 22 135.13 21.9817 135.049 21.945C134.969 21.901 134.888 21.835 134.807 21.747L130.209 16.819C130.085 16.687 129.971 16.599 129.868 16.555C129.766 16.5037 129.604 16.478 129.384 16.478H128.889V22H127.833V5.995H128.889ZM139.905 11.055V22H138.86V11.055H139.905ZM140.367 7.282C140.367 7.414 140.337 7.53867 140.279 7.656C140.227 7.766 140.158 7.865 140.07 7.953C139.982 8.041 139.879 8.11067 139.762 8.162C139.644 8.21333 139.52 8.239 139.388 8.239C139.256 8.239 139.131 8.21333 139.014 8.162C138.896 8.11067 138.794 8.041 138.706 7.953C138.618 7.865 138.548 7.766 138.497 7.656C138.445 7.53867 138.42 7.414 138.42 7.282C138.42 7.15 138.445 7.02533 138.497 6.908C138.548 6.78333 138.618 6.677 138.706 6.589C138.794 6.501 138.896 6.43133 139.014 6.38C139.131 6.32867 139.256 6.303 139.388 6.303C139.52 6.303 139.644 6.32867 139.762 6.38C139.879 6.43133 139.982 6.501 140.07 6.589C140.158 6.677 140.227 6.78333 140.279 6.908C140.337 7.02533 140.367 7.15 140.367 7.282Z" fill="black"/>
</svg>
