<?xml version="1.0" encoding="utf-8"?>
<!-- Generator: Adobe Illustrator 23.1.1, SVG Export Plug-In . SVG Version: 6.00 Build 0)  -->
<svg version="1.1" id="图层_1" xmlns="http://www.w3.org/2000/svg" xmlns:xlink="http://www.w3.org/1999/xlink" x="0px" y="0px"
	 viewBox="0 0 544 337" style="enable-background:new 0 0 544 337;" xml:space="preserve">
<style type="text/css">
	.st0{opacity:0.75;}
	.st1{fill:#FFFFFF;}
	.st2{fill:#6FB74E;}
</style>
<rect width="544" height="337"/>
<g>
	<g class="st0">
		<path class="st1" d="M192.3,226.1c-1.9,4.9-4.6,8.6-7.9,11c-3.3,2.4-7.6,3.6-12.5,3.6c-7.5,0-13.6-2.5-18.3-7.5
			c-4.7-5-7.1-11.6-7.1-19.6c0-8.2,2.3-14.9,6.8-19.8c4.5-4.9,10.6-7.4,18.1-7.4c5.2,0,9.4,1.2,12.7,3.5c3.3,2.3,5.7,5.9,7.2,10.6
			l0.2,0.6h8.7v-23.4h-9.4v5.3c-2.1-1.9-4.7-3.4-7.7-4.5c-3.7-1.4-7.9-2.1-12.4-2.1c-10.2,0-18.8,3.6-25.5,10.6
			c-6.7,7-10.1,15.9-10.1,26.5c0,10.7,3.4,19.6,10.2,26.6c6.8,7,15.6,10.5,26.1,10.5c7.9,0,14.7-2.1,20.2-6.3
			c5.4-4.2,9.1-10.2,11-17.7l0.3-1.1h-10.4L192.3,226.1z"/>
		<path class="st1" d="M232.6,202c-7.1,0-13.2,2.3-18,6.9c-4.8,4.6-7.2,10.4-7.2,17.2c0,6.8,2.4,12.6,7.2,17.3c4.8,4.6,10.8,7,18,7
			c7.2,0,13.2-2.3,18-7c4.8-4.6,7.2-10.4,7.2-17.3c0-6.8-2.4-12.6-7.2-17.2C245.9,204.4,239.8,202,232.6,202z M247.4,226.2
			c0,4.6-1.4,8.2-4.2,11.1c-2.8,2.9-6.3,4.3-10.6,4.3c-4.2,0-7.7-1.4-10.5-4.4c-2.8-2.9-4.2-6.6-4.2-11.1c0-4.4,1.4-8.1,4.2-11.1
			c2.8-2.9,6.3-4.4,10.5-4.4c4.3,0,7.7,1.4,10.6,4.3C246,217.9,247.4,221.7,247.4,226.2z"/>
		<path class="st1" d="M309,217.1c0-2.5-0.2-4.4-0.6-5.8c-0.4-1.4-1-2.6-1.8-3.7c-1.3-1.8-3.1-3.2-5.2-4.2c-2.1-0.9-4.5-1.4-7.2-1.4
			c-3,0-6,0.6-8.7,1.9c-2.2,1-4.4,2.5-6.5,4.4v-5.1H262v8.5h6.8v29.2H262v8.5h23.7v-8.5h-6.8v-22.4c2.3-2.4,4.5-4.2,6.6-5.4
			c2.1-1.2,4.3-1.8,6.4-1.8c2.5,0,4.3,0.6,5.3,1.9c0.7,0.9,1.6,3.1,1.6,8.6v19h-6.8v8.5h23.6v-8.5H309V217.1z"/>
		<path class="st1" d="M333.1,186.7h-9.6v16.5h-8v8.5h8v28.6c0,3.4,0.8,5.9,2.4,7.3c1.6,1.4,4.2,2.1,8.1,2.1c1.5,0,2.8,0,3.9-0.1
			c1.1-0.1,2.2-0.2,3.1-0.4l0.8-0.1v-8.8l-1.5,0.2c-2.1,0.3-2.7,0.4-2.9,0.4c-2.6,0-3.3-0.5-3.5-0.8c-0.2-0.2-0.7-1.2-0.7-5.9v-22.5
			h8.7v-8.5h-8.7V186.7z"/>
		<path class="st1" d="M377.9,202c-0.5,0-0.8,0-1,0c-3.6,0-6.7,0.7-9.2,2.1c-1.7,1-3.3,2.3-4.6,4.1v-4.9h-16.9v8.5h6.8v29.2h-6.8
			v8.5h23.7v-8.5h-6.8v-16.9c0-4.1,1.1-7.1,3.5-9.3c2.3-2.2,5.7-3.3,9.9-3.3h3.2V202h-0.9C378.6,202,378.3,202,377.9,202z"/>
		<path class="st1" d="M419,207.6c-1.7-1.6-3.6-2.9-5.6-3.8c-2.7-1.2-5.8-1.8-9.1-1.8c-6.6,0-12.3,2.4-16.8,7
			c-4.5,4.6-6.8,10.4-6.8,17.2c0,6.8,2.3,12.6,6.8,17.2c4.5,4.6,10.2,7,16.9,7c3.4,0,6.6-0.6,9.3-1.8c2-0.9,3.8-2.1,5.4-3.7v4.4
			h16.9v-8.5h-6.8v-29.2h6.8v-8.5H419V207.6z M415.5,215.2c2.7,2.9,4.1,6.6,4.1,11c0,4.5-1.4,8.2-4.1,11.1c-2.7,2.9-6,4.3-10.1,4.3
			c-4.1,0-7.4-1.4-10.2-4.3c-2.7-2.9-4.1-6.6-4.1-11.1c0-4.5,1.3-8.2,4-11.1c2.7-2.9,6-4.3,10.3-4.3
			C409.5,210.9,412.8,212.3,415.5,215.2z"/>
		<path class="st1" d="M477.9,235c-1.9,2.3-4,4-6.3,5.1c-2.2,1.1-4.6,1.7-7.2,1.7c-4.5,0-7.8-1.3-10.3-4c-2.4-2.7-3.7-6.5-3.7-11.3
			c0-4.8,1.2-8.6,3.5-11.5c2.3-2.8,5.2-4.2,9-4.2c2.9,0,5.4,0.8,7.5,2.2c2.1,1.5,3.7,3.8,4.9,6.8l0.2,0.6h7.4v-17.1h-8.3v3.1
			c-1.4-1.2-3-2.2-4.7-2.9c-2.3-0.9-5-1.4-7.9-1.4c-6.5,0-11.9,2.3-15.9,6.8c-4,4.5-6,10.4-6,17.6c0,7.2,2.1,13.1,6.2,17.5
			c4.1,4.4,9.7,6.6,16.7,6.6c4.2,0,8.2-0.9,11.7-2.6s6.6-4.2,9.1-7.5l0.5-0.6l-5.7-5.6L477.9,235z"/>
		<path class="st1" d="M511.4,211.7v-8.5h-8.7v-16.5h-9.6v16.5h-8v8.5h8v28.6c0,3.4,0.8,5.9,2.4,7.3c1.6,1.4,4.2,2.1,8.1,2.1
			c1.5,0,2.8,0,3.9-0.1c1.1-0.1,2.2-0.2,3.1-0.4l0.8-0.1v-8.8l-1.5,0.2c-2.1,0.3-2.7,0.4-2.9,0.4c-2.6,0-3.3-0.5-3.5-0.8
			c-0.2-0.2-0.7-1.2-0.7-5.9v-22.5H511.4z"/>
	</g>
	<rect x="378" y="86.9" class="st2" width="10.5" height="73.8"/>
	<rect x="357.1" y="111.9" class="st2" width="10.5" height="10.5"/>
	<rect x="357.1" y="150.3" class="st2" width="10.5" height="10.5"/>
	<polygon class="st2" points="125.9,168.5 109.6,184.8 43.8,250.7 32.8,239.7 103.8,168.8 32.6,97.6 43.8,86.4 109.6,152.3 	"/>
	<path class="st1" d="M168.3,86.4h-33.6v10.8h7.7v53.4h-7.7v10.7h29.5v-10.7h-8.7v-16.3h12.8c13.2,0,23.9-10.7,23.9-23.9
		C192.2,97.1,181.5,86.4,168.3,86.4z M167.3,123.4h-11.8V97.2h11.8c7.2,0,13.1,5.9,13.1,13.1S174.5,123.4,167.3,123.4z"/>
	<path class="st1" d="M242.4,132.6c0-11.8-9.6-21.5-21.4-21.5c-3.4,0-6.5,0.8-9.4,2.2V86.4h-19.1V97h6.9v53.8h-6.9v10.5h26.1v-10.5
		h-7v-18.2c0-5.1,4.2-9.3,9.3-9.3c5.2,0,9.3,4.2,9.3,9.3v18.2h-7v10.5h26.1v-10.5h-7V132.6z"/>
	<path class="st1" d="M328.4,86.4h-11.6v26H288v4.4c-3.9-2.8-8.7-4.4-13.9-4.4c-13.5,0-24.4,10.9-24.4,24.4
		c0,13.5,10.9,24.4,24.4,24.4c5.2,0,10-1.6,13.9-4.4v4.4h18.3v-10.5h-7.4v-27.9h17.9v23.3c0,8.3,6.8,15.1,15.1,15.1h14.7v-10.4
		h-13.6c-2.5,0-4.5-2-4.5-4.5v-23.5h18.1v-10.5h-18.1V86.4z M274.1,150.8c-7.7,0-14-6.3-14-14c0-7.7,6.3-14,14-14
		c7.7,0,13.9,6.3,13.9,14C288,144.5,281.8,150.8,274.1,150.8z"/>
</g>
</svg>
